<svg width="59" height="59" viewBox="0 0 59 59" fill="none" xmlns="http://www.w3.org/2000/svg">
<mask id="mask0_211_89" style="mask-type:luminance" maskUnits="userSpaceOnUse" x="0" y="0" width="59" height="59">
<path d="M-1.90735e-05 0H58.4446V58.4446H-1.90735e-05V0Z" fill="white"/>
</mask>
<g mask="url(#mask0_211_89)">
<path d="M23.6292 29.2222C23.6292 32.3114 26.1333 34.8155 29.2225 34.8155C32.3117 34.8155 34.8158 32.3114 34.8158 29.2222C34.8158 26.133 32.3117 23.6289 29.2225 23.6289C26.1333 23.6289 23.6292 26.133 23.6292 29.2222Z" fill="#CDCDCD"/>
<path d="M16.1414 19.3259C16.4103 18.5974 16.8393 17.9379 17.3966 17.3966C17.938 16.8392 18.597 16.4102 19.326 16.1414C19.9173 15.9117 20.8055 15.6384 22.4415 15.5639C24.2113 15.4832 24.7419 15.4658 29.2223 15.4658C33.7031 15.4658 34.2337 15.4828 36.003 15.5635C37.639 15.6384 38.5277 15.9117 39.1185 16.1414C39.8475 16.4102 40.507 16.8392 41.0479 17.3966C41.6053 17.9379 42.0342 18.5969 42.3035 19.3259C42.5332 19.9172 42.8065 20.8059 42.881 22.4419C42.9617 24.2112 42.9791 24.7418 42.9791 29.2226C42.9791 33.703 42.9617 34.2336 42.881 36.0034C42.8065 37.6394 42.5332 38.5276 42.3035 39.1189C42.0342 39.8479 41.6057 40.5069 41.0483 41.0483C40.507 41.6056 39.848 42.0346 39.1189 42.3035C38.5277 42.5335 37.639 42.8069 36.003 42.8813C34.2337 42.962 33.7035 42.979 29.2227 42.979C24.7414 42.979 24.2108 42.962 22.442 42.8813C20.806 42.8069 19.9173 42.5335 19.326 42.3035C17.8626 41.739 16.7059 40.5823 16.1414 39.1189C15.9118 38.5276 15.6385 37.6394 15.5636 36.0034C15.4828 34.2336 15.4659 33.703 15.4659 29.2226C15.4659 24.7418 15.4828 24.2112 15.5636 22.4419C15.638 20.8059 15.9114 19.9172 16.1414 19.3259ZM29.2223 37.8387C33.9813 37.8387 37.8392 33.9812 37.8392 29.2222C37.8392 24.4631 33.9813 20.6057 29.2223 20.6057C24.4637 20.6057 20.6058 24.4631 20.6058 29.2222C20.6058 33.9812 24.4637 37.8387 29.2223 37.8387ZM20.2651 22.2787C21.3772 22.2787 22.2788 21.3771 22.2788 20.265C22.2788 19.1529 21.3772 18.2513 20.2651 18.2513C19.153 18.2513 18.2514 19.1529 18.2514 20.265C18.2519 21.3771 19.153 22.2787 20.2651 22.2787Z" fill="#CDCDCD"/>
<path d="M29.2225 0C45.3589 0 58.4446 13.0857 58.4446 29.2223C58.4446 45.3588 45.3589 58.4446 29.2225 58.4446C13.0858 58.4446 0.00012207 45.3588 0.00012207 29.2223C0.00012207 13.0857 13.0858 0 29.2225 0ZM12.5436 36.1404C12.6248 37.9266 12.9088 39.1462 13.3235 40.2136C14.1952 42.4676 15.977 44.2494 18.231 45.1212C19.298 45.5359 20.5181 45.8195 22.3039 45.9011C24.0933 45.9826 24.6648 46.0023 29.2219 46.0023C33.7794 46.0023 34.3507 45.9826 36.1404 45.9011C37.9263 45.8195 39.1462 45.5359 40.2133 45.1212C41.3335 44.6998 42.3474 44.0394 43.1856 43.1855C44.0392 42.3477 44.6995 41.3333 45.1208 40.2136C45.5355 39.1466 45.8195 37.9266 45.9007 36.1408C45.9832 34.351 46.0023 33.7794 46.0023 29.2223C46.0023 24.6652 45.9832 24.0936 45.9011 22.3042C45.82 20.5179 45.5364 19.2984 45.1217 18.2309C44.7004 17.1113 44.0396 16.0969 43.1856 15.259C42.3479 14.4051 41.3335 13.7448 40.2137 13.3234C39.1462 12.9087 37.9268 12.6251 36.1404 12.5435C34.3512 12.4619 33.7794 12.4423 29.2225 12.4423C24.6653 12.4423 24.0938 12.4619 22.3043 12.544C20.518 12.6251 19.2985 12.9087 18.231 13.3229C17.1114 13.7443 16.0969 14.4051 15.2587 15.259C14.4052 16.0973 13.7444 17.1113 13.3235 18.2309C12.9083 19.2984 12.6248 20.5179 12.5431 22.3042C12.4615 24.0936 12.4424 24.6652 12.4424 29.2223C12.4424 33.7794 12.4615 34.351 12.5436 36.1404Z" fill="#CDCDCD"/>
</g>
</svg>