<svg width="58" height="58" viewBox="0 0 58 58" fill="none" xmlns="http://www.w3.org/2000/svg">
<g clip-path="url(#clip0_211_94)">
<path d="M52.2 0H5.8C2.61 0 0 2.61 0 5.8V52.2C0 55.39 2.61 58 5.8 58H52.2C55.39 58 58 55.39 58 52.2V5.8C58 2.61 55.39 0 52.2 0ZM45.53 21.17C45.24 34.51 36.83 43.79 24.07 44.37C18.85 44.66 15.08 42.92 11.6 40.89C15.37 41.4701 20.3 40.0201 22.91 37.7C19.14 37.41 16.82 35.38 15.66 32.19C16.82 32.48 17.98 32.19 18.85 32.19C15.37 31.03 13.05 29 12.76 24.36C13.63 24.94 14.79 25.23 15.95 25.23C13.34 23.78 11.6 18.27 13.63 14.79C17.4 18.85 22.04 22.33 29.58 22.91C27.55 14.79 38.5701 10.44 42.9201 15.95C44.9501 15.66 46.4001 14.79 47.8501 14.21C47.2701 16.24 46.1101 17.4 44.6601 18.56C46.1101 18.27 47.5601 17.98 48.7201 17.4C48.43 18.85 46.98 20.01 45.53 21.17Z" fill="#CDCDCD"/>
</g>
<defs>
<clipPath id="clip0_211_94">
<rect width="58" height="58" rx="29" fill="white"/>
</clipPath>
</defs>
</svg>
