<svg width="35" height="35" viewBox="0 0 35 35" fill="none" xmlns="http://www.w3.org/2000/svg">
<g clip-path="url(#clip0_426_63)">
<path d="M32.3369 11.2228H30.5226C30.5087 11.2073 30.4957 11.1914 30.4809 11.1767L20.5896 1.28533C20.144 0.839624 19.4213 0.839624 18.9756 1.28533C18.5299 1.73103 18.5299 2.45366 18.9756 2.89936L27.299 11.2227H7.70096L16.0244 2.89936C16.4701 2.45366 16.4701 1.73103 16.0244 1.28533C15.5788 0.839624 14.8561 0.839624 14.4104 1.28533L4.51903 11.1767C4.5042 11.1915 4.49121 11.2074 4.47733 11.2228H2.66308C1.19465 11.2228 0 12.4174 0 13.8858V15.4076C0 16.8063 1.08384 17.9565 2.45574 18.0626L4.64324 31.1878C4.91962 32.8456 6.33992 34.0489 8.02061 34.0489H27.3137C29.0066 34.0489 30.4637 32.7851 30.7032 31.1092L32.5672 18.0607C33.9283 17.9436 34.9999 16.7983 34.9999 15.4076V13.8858C35 12.4174 33.8054 11.2228 32.3369 11.2228ZM32.7174 15.4076C32.7174 15.6173 32.5467 15.788 32.337 15.788C31.9866 15.788 21.424 15.788 20.924 15.788C20.2937 15.788 19.7827 16.299 19.7827 16.9293C19.7827 17.5596 20.2936 18.0706 20.924 18.0706H30.2602L28.4437 30.7864C28.3638 31.3451 27.8781 31.7663 27.3137 31.7663H8.02061C7.4604 31.7663 6.98694 31.3652 6.89479 30.8126L4.77121 18.0706H14.0761C14.7064 18.0706 15.2174 17.5596 15.2174 16.9293C15.2174 16.299 14.7064 15.788 14.0761 15.788C13.5754 15.788 3.01198 15.788 2.66308 15.788C2.45328 15.788 2.28266 15.6173 2.28266 15.4076V13.8858C2.28266 13.676 2.45335 13.5054 2.66308 13.5054H32.337C32.5468 13.5054 32.7174 13.6761 32.7174 13.8858V15.4076Z" fill="black"/>
<path d="M10.6522 20.3533C10.0219 20.3533 9.51086 20.8643 9.51086 21.4946V28.3424C9.51086 28.9727 10.0219 29.4838 10.6522 29.4838C11.2825 29.4838 11.7935 28.9728 11.7935 28.3424V21.4945C11.7935 20.8643 11.2825 20.3533 10.6522 20.3533Z" fill="black"/>
<path d="M17.5 20.3533C16.8697 20.3533 16.3586 20.8643 16.3586 21.4946V28.3424C16.3586 28.9727 16.8696 29.4838 17.5 29.4838C18.1302 29.4838 18.6413 28.9728 18.6413 28.3424V21.4945C18.6413 20.8643 18.1302 20.3533 17.5 20.3533Z" fill="black"/>
<path d="M24.3479 20.3533C23.7176 20.3533 23.2065 20.8643 23.2065 21.4946V28.3424C23.2065 28.9727 23.7175 29.4838 24.3479 29.4838C24.9781 29.4838 25.4892 28.9728 25.4892 28.3424V21.4945C25.4892 20.8643 24.9781 20.3533 24.3479 20.3533Z" fill="black"/>
</g>
<defs>
<clipPath id="clip0_426_63">
<rect width="35" height="35" fill="white"/>
</clipPath>
</defs>
</svg>
